<?xml version="1.0" standalone="no"?><!DOCTYPE svg PUBLIC "-//W3C//DTD SVG 1.1//EN" "http://www.w3.org/Graphics/SVG/1.1/DTD/svg11.dtd"><svg t="1595472952419" class="icon" viewBox="0 0 1069 1024" version="1.1" xmlns="http://www.w3.org/2000/svg" p-id="2082" xmlns:xlink="http://www.w3.org/1999/xlink" width="52.197265625" height="50"><defs><style type="text/css"></style></defs><path d="M527.009107 1017.304691c-271.060853 0-491.583475-220.522622-491.583474-491.583475s220.522622-491.583475 491.583474-491.583475 491.583475 220.522622 491.583475 491.583475c0 271.063728-220.522622 491.583475-491.583475 491.583475z m0-925.671806c-239.358031 0-434.088331 194.730301-434.088331 434.088331s194.730301 434.088331 434.088331 434.088331 434.088331-194.730301 434.088332-434.088331-194.730301-434.088331-434.088332-434.088331z" p-id="2083" fill="#e6e6e6"></path><path d="M719.617837 498.891107c15.811164 0 28.747572 12.936407 28.747572 28.747572s-12.936407 28.747572-28.747572 28.747572H336.314966c-15.811164 0-28.747572-12.936407-28.747572-28.747572s12.936407-28.747572 28.747572-28.747572h383.302871z" p-id="2084" fill="#e6e6e6"></path></svg>