<?xml version="1.0" standalone="no"?><!DOCTYPE svg PUBLIC "-//W3C//DTD SVG 1.1//EN" "http://www.w3.org/Graphics/SVG/1.1/DTD/svg11.dtd"><svg t="1595322415052" class="icon" viewBox="0 0 1024 1024" version="1.1" xmlns="http://www.w3.org/2000/svg" p-id="5192" xmlns:xlink="http://www.w3.org/1999/xlink" width="50" height="50"><defs><style type="text/css"></style></defs><path d="M928 896a128 128 0 0 1-128 128H224a128 128 0 0 1-128-128V128a128 128 0 0 1 128-128h448l256 256v640z" fill="#0089FF" p-id="5193"></path><path d="M671.968 0l256 256h-191.2a64 64 0 0 1-64-63.744L671.968 0z" fill="#FFFFFF" opacity=".48" p-id="5194"></path><path d="M570.56 522.656a22.336 22.336 0 0 1 30.72-7.36 21.504 21.504 0 0 1 7.072 29.568l-68.16 111.136 68.16 111.136 1.472 2.816a21.504 21.504 0 0 1-8.896 26.976 22.336 22.336 0 0 1-30.336-7.584l-62.336-101.536-62.272 101.536a22.336 22.336 0 0 1-30.72 7.36 21.504 21.504 0 0 1-8.512-26.752l1.44-2.816 68.16-111.136-68.16-111.136a21.504 21.504 0 0 1 7.424-29.76 22.336 22.336 0 0 1 30.368 7.552l62.272 101.504zM372.416 512a21.568 21.568 0 1 1 0 43.168h-41.376v221.472a22.048 22.048 0 1 1-44.064 0v-221.504H245.568a21.568 21.568 0 0 1 0-43.136h126.816z m406.048 0a21.568 21.568 0 1 1 0 43.168h-41.408v221.472a22.048 22.048 0 1 1-44.032 0l-0.032-221.504h-41.344a21.568 21.568 0 0 1 0-43.136h126.816z" fill="#FFFFFF" p-id="5195"></path></svg>