<?xml version="1.0" standalone="no"?><!DOCTYPE svg PUBLIC "-//W3C//DTD SVG 1.1//EN" "http://www.w3.org/Graphics/SVG/1.1/DTD/svg11.dtd"><svg t="1595322889922" class="icon" viewBox="0 0 1024 1024" version="1.1" xmlns="http://www.w3.org/2000/svg" p-id="5994" xmlns:xlink="http://www.w3.org/1999/xlink" width="50" height="50"><defs><style type="text/css"></style></defs><path d="M672.021679 0v0.972988L223.960898 0A127.947867 127.947867 0 0 0 95.943532 128.017366v768.034698a127.947867 127.947867 0 0 0 128.017366 127.947867h576.078147a128.017366 128.017366 0 0 0 128.017367-127.947867V256.034732zM527.602523 729.740686a26.201166 26.201166 0 0 1-17.930772 6.949911 24.950182 24.950182 0 0 1-25.436675-25.01968A22.309215 22.309215 0 0 1 492.088476 694.365638a23.421201 23.421201 0 0 1 17.930771-6.949912 24.32469 24.32469 0 0 1 17.930771 6.949912 23.768697 23.768697 0 0 1 6.949911 17.513776 24.32469 24.32469 0 0 1-7.297406 17.861272z m60.047233-166.797871a425.960063 425.960063 0 0 1-34.193563 32.10859 78.256001 78.256001 0 0 0-19.181756 22.517713 59.282743 59.282743 0 0 0-7.922898 30.857606v9.590878h-33.776569v-9.521379a78.394999 78.394999 0 0 1 7.922899-36.278537q7.505904-17.930771 42.116462-48.649379 8.339894-8.339894 13.899823-15.011808a53.653315 53.653315 0 0 0 12.092845-32.94258 52.47183 52.47183 0 0 0-13.899822-38.780505 55.59929 55.59929 0 0 0-41.282473-14.594814q-30.857606 0-46.28641 20.43274a78.464499 78.464499 0 0 0-13.343829 47.954388h-33.359575a99.244733 99.244733 0 0 1 24.602686-70.055106q25.85367-27.799645 70.055106-27.799646 40.865478 0 64.217181 22.100718A75.545536 75.545536 0 0 1 603.287057 514.293436a80.966467 80.966467 0 0 1-15.637301 48.649379z m148.450106-306.908083a64.147681 64.147681 0 0 1-64.078183-64.078182V63.939184l192.095549 192.095548z" fill="#CCCCCC" p-id="5995"></path></svg>