<?xml version="1.0" standalone="no"?><!DOCTYPE svg PUBLIC "-//W3C//DTD SVG 1.1//EN" "http://www.w3.org/Graphics/SVG/1.1/DTD/svg11.dtd"><svg t="1595316705358" class="icon" viewBox="0 0 1024 1024" version="1.1" xmlns="http://www.w3.org/2000/svg" p-id="2095" width="50" height="50" xmlns:xlink="http://www.w3.org/1999/xlink"><defs><style type="text/css"></style></defs><path d="M100.352 0C80.65024 0 61.44 19.456 61.44 38.4v947.2c0 19.456 19.72224 38.4 38.912 38.4h817.8688c19.72224 0 38.92224-19.456 38.92224-38.4V224.256L730.368 0.512H100.352V0z" fill="#4D97FF" p-id="2096"></path><path d="M736.22528 0v179.2c0 19.456 19.712 38.4 38.912 38.4h182.15936L736.21504 0z" fill="#A4D2FE" p-id="2097"></path><path d="M266.24 430.08h62.976l71.168 284.672h2.048L477.184 430.08h58.368l74.752 284.672h2.048L683.52 430.08h62.976L641.024 795.648h-59.392l-74.24-282.112h-2.048L431.104 795.648h-59.904z" fill="#FFFFFF" p-id="2098"></path></svg>