<?xml version="1.0" standalone="no"?><!DOCTYPE svg PUBLIC "-//W3C//DTD SVG 1.1//EN" "http://www.w3.org/Graphics/SVG/1.1/DTD/svg11.dtd"><svg t="1595321904937" class="icon" viewBox="0 0 1025 1024" version="1.1" xmlns="http://www.w3.org/2000/svg" p-id="4409" xmlns:xlink="http://www.w3.org/1999/xlink" width="50.048828125" height="50"><defs><style type="text/css"></style></defs><path d="M0 345.6h1024v332.8H0V345.6z" fill="#F95F5D" p-id="4410"></path><path d="M1018.514 345.6V80.457c0-32.914-29.257-62.171-64-62.171H64c-34.743 0-64 29.257-64 62.171V345.6h1018.514z" fill="#55C7F7" p-id="4411"></path><path d="M0 678.4v265.143c0 32.914 29.257 62.171 64 62.171h897.829c34.742 0 64-29.257 64-62.171V678.4H0z" fill="#7ECF3B" p-id="4412"></path><path d="M400.457 18.286H629.03v987.428H400.457V18.286z" fill="#FDAF42" p-id="4413"></path><path d="M629.029 446.171v138.972H389.486V446.17h239.543m38.4-56.685H351.086c-5.486 0-14.629 5.485-14.629 14.628v221.257c0 5.486 5.486 14.629 14.629 14.629h316.343c5.485 0 14.628-5.486 14.628-14.629V404.114c-3.657-10.971-9.143-14.628-14.628-14.628z" fill="#FFFFFF" p-id="4414"></path></svg>